<!DOCTYPE svg PUBLIC "-//W3C//DTD SVG 1.1//EN" "http://www.w3.org/Graphics/SVG/1.1/DTD/svg11.dtd">
<!-- Uploaded to: SVG Repo, www.svgrepo.com, Transformed by: SVG Repo Mixer Tools -->
<svg width="800px" height="800px" viewBox="0 0 16 16" fill="none" xmlns="http://www.w3.org/2000/svg">
<g id="SVGRepo_bgCarrier" stroke-width="0"/>
<g id="SVGRepo_tracerCarrier" stroke-linecap="round" stroke-linejoin="round"/>
<g id="SVGRepo_iconCarrier"> <path d="M16 0L11.5 0.5V1.5L12.5572 2.0286L10.9057 3.68016C9.55098 2.62709 7.84872 2 6 2C4.33262 2 2.78439 2.5101 1.50283 3.38275C1.22497 3.57196 0.959638 3.77821 0.708351 4C0.457776 4.22116 0.221162 4.45778 0 4.70835L3.52452 8.23288L4.93874 6.81866L2.95096 4.83089C3.84475 4.3023 4.88659 4 6 4C7.29584 4 8.49573 4.4108 9.47656 5.10927L4.58583 10H3.00004L4.01735e-05 13L2.00004 14L3.00004 16L6.00004 13V11.4142L10.8908 6.52349C11.5892 7.5043 12 8.70418 12 10C12 11.1134 11.6977 12.1552 11.1691 13.049L9.18138 11.0613L7.76717 12.4755L11.2916 16C11.5422 15.7788 11.7788 15.5422 12 15.2916C12.2218 15.0404 12.428 14.775 12.6172 14.4972C13.4899 13.2156 14 11.6674 14 10C14 8.1513 13.3729 6.44906 12.3199 5.09438L13.9714 3.44281L14.5 4.5H15.5L16 0Z" fill="#ffffff"/> </g>
</svg>