<svg width="37" height="38" viewBox="0 0 37 38" fill="none" xmlns="http://www.w3.org/2000/svg">
<path d="M21.5865 5.00004C21.5885 2.79002 16.9767 1 11.2943 1C5.61183 1 1.00412 2.79202 1 5.00004M1 5.00004C1 7.21006 5.60771 9.00008 11.2943 9.00008C16.9808 9.00008 21.5885 7.21006 21.5885 5.00004L21.5885 20.5201M1 5.00004V29.0001C1.00206 31.2102 5.60977 33.0002 11.2943 33.0002C14.0511 33.0002 16.5402 32.5742 18.387 31.8882M1.00206 13.0001C1.00206 15.2101 5.60978 17.0001 11.2963 17.0001C16.9829 17.0001 21.5906 15.2101 21.5906 13.0001M18.5106 23.8503C16.6535 24.5603 14.1067 25.0003 11.2943 25.0003C5.60977 25.0003 1.00206 23.2103 1.00206 21.0003M33.2869 21.6363C36.9043 25.1504 36.9043 30.8504 33.2869 34.3645C29.6695 37.8785 23.8018 37.8785 20.1844 34.3645C16.567 30.8504 16.567 25.1504 20.1844 21.6363C23.8018 18.1223 29.6695 18.1223 33.2869 21.6363Z" stroke="#CA974A" stroke-width="2" stroke-linecap="round" stroke-linejoin="round"/>
</svg>
